{
	"asset":{
		"generator":"Khronos glTF Blender I/O v3.6.27",
		"version":"2.0"
	},
	"scene":0,
	"scenes":[
		{
			"name":"Scene",
			"nodes":[
				0,
				1,
				2,
				3,
				4,
				5,
				6,
				7,
				8,
				9,
				10
			]
		}
	],
	"nodes":[
		{
			"mesh":0,
			"name":"MH1_OBJ_02",
			"rotation":[
				0.70710688829422,
				0,
				0,
				0.7071066498756409
			],
			"scale":[
				0.03610769286751747,
				0.03610769286751747,
				0.03610769286751747
			]
		},
		{
			"mesh":1,
			"name":"MH1_OBJ_10",
			"rotation":[
				0.70710688829422,
				0,
				0,
				0.7071066498756409
			],
			"scale":[
				0.03610769286751747,
				0.03610769286751747,
				0.03610769286751747
			]
		},
		{
			"mesh":2,
			"name":"MH1_OBJ_09",
			"rotation":[
				0.70710688829422,
				0,
				0,
				0.7071066498756409
			],
			"scale":[
				0.03610769286751747,
				0.03610769286751747,
				0.03610769286751747
			]
		},
		{
			"mesh":3,
			"name":"MH1_OBJ_07",
			"rotation":[
				0.70710688829422,
				0,
				0,
				0.7071066498756409
			],
			"scale":[
				0.03610769286751747,
				0.03610769286751747,
				0.03610769286751747
			]
		},
		{
			"mesh":4,
			"name":"MH1_OBJ_01",
			"rotation":[
				0.70710688829422,
				0,
				0,
				0.7071066498756409
			],
			"scale":[
				0.03610769286751747,
				0.03610769286751747,
				0.03610769286751747
			]
		},
		{
			"mesh":5,
			"name":"MH1_OBJ_06",
			"rotation":[
				0.70710688829422,
				0,
				0,
				0.7071066498756409
			],
			"scale":[
				0.03610769286751747,
				0.03610769286751747,
				0.03610769286751747
			]
		},
		{
			"mesh":6,
			"name":"MH1_OBJ_05",
			"rotation":[
				0.70710688829422,
				0,
				0,
				0.7071066498756409
			],
			"scale":[
				0.03610769286751747,
				0.03610769286751747,
				0.03610769286751747
			]
		},
		{
			"mesh":7,
			"name":"MH1_OBJ_03",
			"rotation":[
				0.70710688829422,
				0,
				0,
				0.7071066498756409
			],
			"scale":[
				0.03610769286751747,
				0.03610769286751747,
				0.03610769286751747
			]
		},
		{
			"mesh":8,
			"name":"MH1_OBJ_08",
			"rotation":[
				0.70710688829422,
				0,
				0,
				0.7071066498756409
			],
			"scale":[
				0.03610769286751747,
				0.03610769286751747,
				0.03610769286751747
			]
		},
		{
			"mesh":9,
			"name":"MH1_OBJ_04",
			"rotation":[
				0.70710688829422,
				0,
				0,
				0.7071066498756409
			],
			"scale":[
				0.03610769286751747,
				0.03610769286751747,
				0.03610769286751747
			]
		},
		{
			"mesh":10,
			"name":"MH1_OBJ_11",
			"rotation":[
				0.70710688829422,
				0,
				0,
				0.7071066498756409
			],
			"scale":[
				0.03610769286751747,
				0.03610769286751747,
				0.03610769286751747
			]
		}
	],
	"materials":[
		{
			"doubleSided":true,
			"name":"Modern_House_01",
			"pbrMetallicRoughness":{
				"baseColorFactor":[
					0.800000011920929,
					0.800000011920929,
					0.800000011920929,
					1
				],
				"metallicFactor":0,
				"roughnessFactor":0.5
			}
		}
	],
	"meshes":[
		{
			"name":"MH1_OBJ_02",
			"primitives":[
				{
					"attributes":{
						"POSITION":0,
						"NORMAL":1,
						"TEXCOORD_0":2
					},
					"indices":3,
					"material":0
				}
			]
		},
		{
			"name":"MH1_OBJ_10",
			"primitives":[
				{
					"attributes":{
						"POSITION":4,
						"NORMAL":5,
						"TEXCOORD_0":6
					},
					"indices":7,
					"material":0
				}
			]
		},
		{
			"name":"MH1_OBJ_09",
			"primitives":[
				{
					"attributes":{
						"POSITION":8,
						"NORMAL":9,
						"TEXCOORD_0":10
					},
					"indices":11,
					"material":0
				}
			]
		},
		{
			"name":"MH1_OBJ_07",
			"primitives":[
				{
					"attributes":{
						"POSITION":12,
						"NORMAL":13,
						"TEXCOORD_0":14
					},
					"indices":15,
					"material":0
				}
			]
		},
		{
			"name":"MH1_OBJ_01",
			"primitives":[
				{
					"attributes":{
						"POSITION":16,
						"NORMAL":17,
						"TEXCOORD_0":18
					},
					"indices":19,
					"material":0
				}
			]
		},
		{
			"name":"MH1_OBJ_06",
			"primitives":[
				{
					"attributes":{
						"POSITION":20,
						"NORMAL":21,
						"TEXCOORD_0":22
					},
					"indices":23,
					"material":0
				}
			]
		},
		{
			"name":"MH1_OBJ_05",
			"primitives":[
				{
					"attributes":{
						"POSITION":24,
						"NORMAL":25,
						"TEXCOORD_0":26
					},
					"indices":27,
					"material":0
				}
			]
		},
		{
			"name":"MH1_OBJ_03",
			"primitives":[
				{
					"attributes":{
						"POSITION":28,
						"NORMAL":29,
						"TEXCOORD_0":30
					},
					"indices":31,
					"material":0
				}
			]
		},
		{
			"name":"MH1_OBJ_08",
			"primitives":[
				{
					"attributes":{
						"POSITION":32,
						"NORMAL":33,
						"TEXCOORD_0":34
					},
					"indices":35,
					"material":0
				}
			]
		},
		{
			"name":"MH1_OBJ_04",
			"primitives":[
				{
					"attributes":{
						"POSITION":36,
						"NORMAL":37,
						"TEXCOORD_0":38
					},
					"indices":39,
					"material":0
				}
			]
		},
		{
			"name":"MH1_OBJ_11",
			"primitives":[
				{
					"attributes":{
						"POSITION":40,
						"NORMAL":41,
						"TEXCOORD_0":42
					},
					"indices":43,
					"material":0
				}
			]
		}
	],
	"accessors":[
		{
			"bufferView":0,
			"componentType":5126,
			"count":3144,
			"max":[
				298.9762878417969,
				286.0376892089844,
				-48
			],
			"min":[
				-288.04840087890625,
				-215.03770446777344,
				-252
			],
			"type":"VEC3"
		},
		{
			"bufferView":1,
			"componentType":5126,
			"count":3144,
			"type":"VEC3"
		},
		{
			"bufferView":2,
			"componentType":5126,
			"count":3144,
			"type":"VEC2"
		},
		{
			"bufferView":3,
			"componentType":5123,
			"count":5868,
			"type":"SCALAR"
		},
		{
			"bufferView":4,
			"componentType":5126,
			"count":2857,
			"max":[
				304.9761962890625,
				321.0813903808594,
				0
			],
			"min":[
				-332.0238952636719,
				-275.0376892089844,
				-318
			],
			"type":"VEC3"
		},
		{
			"bufferView":5,
			"componentType":5126,
			"count":2857,
			"type":"VEC3"
		},
		{
			"bufferView":6,
			"componentType":5126,
			"count":2857,
			"type":"VEC2"
		},
		{
			"bufferView":7,
			"componentType":5123,
			"count":5328,
			"type":"SCALAR"
		},
		{
			"bufferView":8,
			"componentType":5126,
			"count":781,
			"max":[
				-217.0238037109375,
				280.0376892089844,
				0
			],
			"min":[
				-319.0238037109375,
				58.620399475097656,
				-169
			],
			"type":"VEC3"
		},
		{
			"bufferView":9,
			"componentType":5126,
			"count":781,
			"type":"VEC3"
		},
		{
			"bufferView":10,
			"componentType":5126,
			"count":781,
			"type":"VEC2"
		},
		{
			"bufferView":11,
			"componentType":5123,
			"count":1398,
			"type":"SCALAR"
		},
		{
			"bufferView":12,
			"componentType":5126,
			"count":382,
			"max":[
				298.9761962890625,
				287.0376892089844,
				0
			],
			"min":[
				-331.0238952636719,
				-467.0376892089844,
				-98
			],
			"type":"VEC3"
		},
		{
			"bufferView":13,
			"componentType":5126,
			"count":382,
			"type":"VEC3"
		},
		{
			"bufferView":14,
			"componentType":5126,
			"count":382,
			"type":"VEC2"
		},
		{
			"bufferView":15,
			"componentType":5123,
			"count":576,
			"type":"SCALAR"
		},
		{
			"bufferView":16,
			"componentType":5126,
			"count":865,
			"max":[
				193.92860412597656,
				287.0376892089844,
				-119.9999008178711
			],
			"min":[
				-205.0238037109375,
				-275.0378112792969,
				-234.00010681152344
			],
			"type":"VEC3"
		},
		{
			"bufferView":17,
			"componentType":5126,
			"count":865,
			"type":"VEC3"
		},
		{
			"bufferView":18,
			"componentType":5126,
			"count":865,
			"type":"VEC2"
		},
		{
			"bufferView":19,
			"componentType":5123,
			"count":1380,
			"type":"SCALAR"
		},
		{
			"bufferView":20,
			"componentType":5126,
			"count":3772,
			"max":[
				202.9761962890625,
				287.0376892089844,
				-6
			],
			"min":[
				-259.0238037109375,
				-215.03770446777344,
				-222
			],
			"type":"VEC3"
		},
		{
			"bufferView":21,
			"componentType":5126,
			"count":3772,
			"type":"VEC3"
		},
		{
			"bufferView":22,
			"componentType":5126,
			"count":3772,
			"type":"VEC2"
		},
		{
			"bufferView":23,
			"componentType":5123,
			"count":7032,
			"type":"SCALAR"
		},
		{
			"bufferView":24,
			"componentType":5126,
			"count":1138,
			"max":[
				332.0238952636719,
				320.0852966308594,
				-234
			],
			"min":[
				-319.03271484375,
				-308.0935974121094,
				-271
			],
			"type":"VEC3"
		},
		{
			"bufferView":25,
			"componentType":5126,
			"count":1138,
			"type":"VEC3"
		},
		{
			"bufferView":26,
			"componentType":5126,
			"count":1138,
			"type":"VEC2"
		},
		{
			"bufferView":27,
			"componentType":5123,
			"count":1788,
			"type":"SCALAR"
		},
		{
			"bufferView":28,
			"componentType":5126,
			"count":613,
			"max":[
				298.9762878417969,
				347.0376892089844,
				0
			],
			"min":[
				-319.0238037109375,
				-292.0082092285156,
				-138
			],
			"type":"VEC3"
		},
		{
			"bufferView":29,
			"componentType":5126,
			"count":613,
			"type":"VEC3"
		},
		{
			"bufferView":30,
			"componentType":5126,
			"count":613,
			"type":"VEC2"
		},
		{
			"bufferView":31,
			"componentType":5123,
			"count":1308,
			"type":"SCALAR"
		},
		{
			"bufferView":32,
			"componentType":5126,
			"count":76,
			"max":[
				298.9762878417969,
				467.0376892089844,
				0
			],
			"min":[
				-332.0238037109375,
				-455.0376892089844,
				-6
			],
			"type":"VEC3"
		},
		{
			"bufferView":33,
			"componentType":5126,
			"count":76,
			"type":"VEC3"
		},
		{
			"bufferView":34,
			"componentType":5126,
			"count":76,
			"type":"VEC2"
		},
		{
			"bufferView":35,
			"componentType":5123,
			"count":162,
			"type":"SCALAR"
		},
		{
			"bufferView":36,
			"componentType":5126,
			"count":563,
			"max":[
				202.97630310058594,
				221.03770446777344,
				-18
			],
			"min":[
				-319.0238952636719,
				-209.03770446777344,
				-258.0000915527344
			],
			"type":"VEC3"
		},
		{
			"bufferView":37,
			"componentType":5126,
			"count":563,
			"type":"VEC3"
		},
		{
			"bufferView":38,
			"componentType":5126,
			"count":563,
			"type":"VEC2"
		},
		{
			"bufferView":39,
			"componentType":5123,
			"count":864,
			"type":"SCALAR"
		},
		{
			"bufferView":40,
			"componentType":5126,
			"count":3076,
			"max":[
				294.00408935546875,
				287.0376892089844,
				-4
			],
			"min":[
				-325.63470458984375,
				-462.19781494140625,
				-98
			],
			"type":"VEC3"
		},
		{
			"bufferView":41,
			"componentType":5126,
			"count":3076,
			"type":"VEC3"
		},
		{
			"bufferView":42,
			"componentType":5126,
			"count":3076,
			"type":"VEC2"
		},
		{
			"bufferView":43,
			"componentType":5123,
			"count":4752,
			"type":"SCALAR"
		}
	],
	"bufferViews":[
		{
			"buffer":0,
			"byteLength":37728,
			"byteOffset":0,
			"target":34962
		},
		{
			"buffer":0,
			"byteLength":37728,
			"byteOffset":37728,
			"target":34962
		},
		{
			"buffer":0,
			"byteLength":25152,
			"byteOffset":75456,
			"target":34962
		},
		{
			"buffer":0,
			"byteLength":11736,
			"byteOffset":100608,
			"target":34963
		},
		{
			"buffer":0,
			"byteLength":34284,
			"byteOffset":112344,
			"target":34962
		},
		{
			"buffer":0,
			"byteLength":34284,
			"byteOffset":146628,
			"target":34962
		},
		{
			"buffer":0,
			"byteLength":22856,
			"byteOffset":180912,
			"target":34962
		},
		{
			"buffer":0,
			"byteLength":10656,
			"byteOffset":203768,
			"target":34963
		},
		{
			"buffer":0,
			"byteLength":9372,
			"byteOffset":214424,
			"target":34962
		},
		{
			"buffer":0,
			"byteLength":9372,
			"byteOffset":223796,
			"target":34962
		},
		{
			"buffer":0,
			"byteLength":6248,
			"byteOffset":233168,
			"target":34962
		},
		{
			"buffer":0,
			"byteLength":2796,
			"byteOffset":239416,
			"target":34963
		},
		{
			"buffer":0,
			"byteLength":4584,
			"byteOffset":242212,
			"target":34962
		},
		{
			"buffer":0,
			"byteLength":4584,
			"byteOffset":246796,
			"target":34962
		},
		{
			"buffer":0,
			"byteLength":3056,
			"byteOffset":251380,
			"target":34962
		},
		{
			"buffer":0,
			"byteLength":1152,
			"byteOffset":254436,
			"target":34963
		},
		{
			"buffer":0,
			"byteLength":10380,
			"byteOffset":255588,
			"target":34962
		},
		{
			"buffer":0,
			"byteLength":10380,
			"byteOffset":265968,
			"target":34962
		},
		{
			"buffer":0,
			"byteLength":6920,
			"byteOffset":276348,
			"target":34962
		},
		{
			"buffer":0,
			"byteLength":2760,
			"byteOffset":283268,
			"target":34963
		},
		{
			"buffer":0,
			"byteLength":45264,
			"byteOffset":286028,
			"target":34962
		},
		{
			"buffer":0,
			"byteLength":45264,
			"byteOffset":331292,
			"target":34962
		},
		{
			"buffer":0,
			"byteLength":30176,
			"byteOffset":376556,
			"target":34962
		},
		{
			"buffer":0,
			"byteLength":14064,
			"byteOffset":406732,
			"target":34963
		},
		{
			"buffer":0,
			"byteLength":13656,
			"byteOffset":420796,
			"target":34962
		},
		{
			"buffer":0,
			"byteLength":13656,
			"byteOffset":434452,
			"target":34962
		},
		{
			"buffer":0,
			"byteLength":9104,
			"byteOffset":448108,
			"target":34962
		},
		{
			"buffer":0,
			"byteLength":3576,
			"byteOffset":457212,
			"target":34963
		},
		{
			"buffer":0,
			"byteLength":7356,
			"byteOffset":460788,
			"target":34962
		},
		{
			"buffer":0,
			"byteLength":7356,
			"byteOffset":468144,
			"target":34962
		},
		{
			"buffer":0,
			"byteLength":4904,
			"byteOffset":475500,
			"target":34962
		},
		{
			"buffer":0,
			"byteLength":2616,
			"byteOffset":480404,
			"target":34963
		},
		{
			"buffer":0,
			"byteLength":912,
			"byteOffset":483020,
			"target":34962
		},
		{
			"buffer":0,
			"byteLength":912,
			"byteOffset":483932,
			"target":34962
		},
		{
			"buffer":0,
			"byteLength":608,
			"byteOffset":484844,
			"target":34962
		},
		{
			"buffer":0,
			"byteLength":324,
			"byteOffset":485452,
			"target":34963
		},
		{
			"buffer":0,
			"byteLength":6756,
			"byteOffset":485776,
			"target":34962
		},
		{
			"buffer":0,
			"byteLength":6756,
			"byteOffset":492532,
			"target":34962
		},
		{
			"buffer":0,
			"byteLength":4504,
			"byteOffset":499288,
			"target":34962
		},
		{
			"buffer":0,
			"byteLength":1728,
			"byteOffset":503792,
			"target":34963
		},
		{
			"buffer":0,
			"byteLength":36912,
			"byteOffset":505520,
			"target":34962
		},
		{
			"buffer":0,
			"byteLength":36912,
			"byteOffset":542432,
			"target":34962
		},
		{
			"buffer":0,
			"byteLength":24608,
			"byteOffset":579344,
			"target":34962
		},
		{
			"buffer":0,
			"byteLength":9504,
			"byteOffset":603952,
			"target":34963
		}
	],
	"buffers":[
		{
			"byteLength":613456,
			"uri":"data:application/octet-stream;base64,"
		}
	]
}
